<?xml version="1.0" standalone="no"?>
<!DOCTYPE svg PUBLIC "-//W3C//DTD SVG 20010904//EN"
 "http://www.w3.org/TR/2001/REC-SVG-20010904/DTD/svg10.dtd">
<svg version="1.0" xmlns="http://www.w3.org/2000/svg"
 width="863.000000pt" height="407.000000pt" viewBox="0 0 863.000000 407.000000"
 preserveAspectRatio="xMidYMid meet">
<metadata>
Created by potrace 1.16, written by Peter Selinger 2001-2019
</metadata>
<g transform="translate(0.000000,407.000000) scale(0.100000,-0.100000)"
fill="#000000" stroke="none">
<path d="M3195 4054 c-292 -24 -481 -100 -626 -251 -144 -150 -214 -320 -258
-628 -38 -263 -43 -431 -39 -1315 4 -916 4 -903 63 -1127 88 -334 290 -522
645 -599 70 -16 127 -19 325 -18 228 0 245 1 339 27 301 81 485 266 595 596
69 209 97 456 88 771 -10 334 -45 524 -124 690 -81 168 -219 280 -403 325 -89
22 -322 31 -402 16 -97 -19 -176 -62 -242 -130 l-57 -60 3 427 3 427 27 56
c38 76 86 103 185 104 57 0 77 -4 100 -21 64 -46 93 -157 93 -356 l0 -118 380
0 380 0 0 254 c0 300 -10 372 -69 491 -137 276 -422 428 -826 439 -71 2 -152
2 -180 0z m152 -2205 c49 -18 82 -60 103 -127 18 -58 20 -93 20 -356 0 -386
-14 -463 -89 -513 -47 -32 -135 -32 -181 0 -90 61 -100 109 -100 496 0 348 7
398 67 457 48 48 121 66 180 43z"/>
<path d="M5325 4050 c-238 -28 -413 -101 -552 -234 -192 -181 -282 -413 -303
-776 -12 -201 -12 -1771 0 -1960 19 -309 96 -517 253 -686 117 -126 263 -208
454 -256 78 -20 114 -23 308 -23 176 0 237 4 305 18 339 73 572 283 674 605
59 188 59 184 63 1192 6 1159 -2 1298 -80 1525 -108 313 -331 507 -663 574
-117 24 -342 34 -459 21z m260 -739 c39 -21 73 -91 86 -172 6 -40 9 -459 7
-1104 l-3 -1040 -24 -45 c-43 -83 -91 -120 -156 -120 -83 0 -153 70 -175 173
-8 37 -10 358 -8 1112 3 990 4 1063 21 1106 10 25 31 59 47 74 48 46 139 53
205 16z"/>
<path d="M825 4019 c-177 -23 -360 -91 -475 -177 -163 -123 -276 -350 -310
-622 -5 -46 -10 -149 -10 -227 l0 -143 405 0 405 0 0 58 c1 98 27 267 51 316
28 61 64 80 149 81 83 0 122 -25 158 -104 22 -48 27 -74 30 -178 4 -103 1
-132 -17 -191 -40 -132 -135 -202 -305 -224 l-86 -11 0 -348 0 -349 78 0 c97
0 160 -27 220 -95 87 -99 105 -195 100 -541 -3 -239 -5 -263 -25 -313 -40 -98
-106 -141 -197 -126 -84 14 -128 55 -158 145 -19 59 -22 92 -26 348 l-4 282
-399 0 -399 0 0 -287 c0 -419 26 -577 125 -778 65 -131 134 -213 240 -284 152
-101 299 -140 561 -148 276 -8 433 19 609 106 274 135 431 403 485 827 17 128
14 525 -4 683 -24 201 -68 313 -164 414 -31 32 -83 75 -115 94 l-58 36 63 34
c173 92 253 256 278 565 27 338 -45 659 -193 854 -123 162 -337 272 -592 303
-104 13 -318 12 -420 0z"/>
<path d="M6800 2000 l0 -1970 910 0 910 0 0 1970 0 1970 -910 0 -910 0 0
-1970z m790 1376 c89 -17 136 -36 180 -73 48 -40 63 -84 70 -203 l5 -105 273
-3 273 -2 -3 -133 -3 -132 -683 -3 -684 -2 4 232 c3 217 5 236 25 274 26 49
80 98 131 120 95 41 278 54 412 30z m795 -1006 l0 -275 -682 -3 -683 -2 0 140
0 140 565 0 565 0 0 133 c0 74 3 137 7 141 4 3 57 5 117 4 l111 -3 0 -275z m5
-650 l0 -280 -685 0 -685 0 0 270 0 270 130 0 130 0 0 -130 0 -130 135 0 135
0 0 125 0 125 130 0 130 0 0 -125 0 -125 155 0 155 0 0 140 0 140 135 0 135 0
0 -280z m-5 -540 l0 -135 -307 -3 -308 -2 0 -65 0 -65 310 0 311 0 -3 -132 -3
-133 -682 -3 -683 -2 0 135 0 135 243 2 242 3 3 63 3 62 -246 0 -245 0 0 140
0 140 683 -2 682 -3 0 -135z"/>
<path d="M7342 3111 c-50 -13 -72 -38 -72 -83 l0 -38 165 0 c154 0 165 1 165
19 0 33 -20 76 -42 90 -26 16 -169 24 -216 12z"/>
</g>
</svg>
