<svg version="1.2" xmlns="http://www.w3.org/2000/svg" viewBox="0 0 102 48" width="102" height="48">
	<title>360help-preto-svg</title>
	<defs>
		<clipPath clipPathUnits="userSpaceOnUse" id="cp1">
			<path d="m80.37 1.07h21.28v46.05h-21.28z"/>
		</clipPath>
	</defs>
	<style>
		.s0 { fill: #ffffff } 
		.s1 { fill: #000000 } 
	</style>
	<g>
		<g>
			<g>
				<path class="s0" d="m12.3 46.3q-6 0-8.7-3.1-2.8-3.1-2.8-9.6v-4.7h9.3v4.7q0 2.1 0.5 3.2 0.6 1.1 2.1 1.1 1.2 0 1.7-0.8 0.5-0.7 0.6-1.8 0.1-1.1 0.1-3.2v-1.1q0-5.9-3.9-5.9-0.7 0-0.9 0.1v-8.1q2.4 0 3.7-1.1 1.2-1.1 1.2-3.5 0-3.8-2.2-3.8-1.4 0-1.8 0.7-0.4 0.7-0.5 1.7-0.2 1.1-0.2 1.5v1.4h-9.4l-0.1-1.6q0.1-6.2 3-9.1 2.9-3 8.9-3 11.6 0 11.6 12.1 0 3.6-1 5.7-0.9 2-3.3 2.9 2 0.9 2.9 2.3 0.9 1.4 1.2 3.4 0.3 2 0.3 5.4 0 7.1-3 10.6-2.9 3.6-9.3 3.6z"/>
			</g>
		</g>
	</g>
	<g>
		<g>
			<g>
				<path fill-rule="evenodd" class="s0" d="m39.5 46.2q-4.6 0-7.3-1.6-2.7-1.5-3.8-4.7-1.1-3.2-1.1-8.3v-12.2q0-7 0.8-11.1 0.9-4 3.6-6.1 2.7-2.2 8.1-2.2 2.9 0 5.4 1 2.5 1 4 3 1.5 2 1.5 4.9v4.9h-8.8v-0.9q0-2.4-0.4-3.6-0.4-1.3-1.9-1.3-1.5 0-2.1 0.8-0.6 0.8-0.6 2.4v9.2q0.7-1.3 2-2 1.3-0.8 3.1-0.8 3.7 0 5.7 1.5 2.1 1.5 2.9 4.4 0.7 2.9 0.7 7.6 0 7.3-2.7 11.2-2.7 3.9-9.1 3.9zm-0.3-8.3q1.4 0 1.8-1.1 0.4-1.2 0.4-3.8v-3.6q0-3.7-2.1-3.7-2.4 0-2.4 3.2v5.6q0 3.4 2.3 3.4z"/>
			</g>
		</g>
	</g>
	<g>
		<g>
			<g>
				<path fill-rule="evenodd" class="s0" d="m65 46.2q-5.7 0-8.8-3.2-3.2-3.3-3.2-9.3v-20.5q0-6.4 3-9.8 3.1-3.4 9-3.4 6 0 9.1 3.4 3 3.4 3 9.8v20.5q0 6.1-3.1 9.3-3.2 3.2-9 3.2zm0-8.3q1 0 1.7-0.9 0.6-1 0.6-2.2v-22.4q0-2-0.5-3-0.4-1-1.8-1-1.3 0-1.8 1-0.4 1-0.4 3v22.4q0 1.2 0.6 2.2 0.6 0.9 1.6 0.9z"/>
			</g>
		</g>
	</g>
	<g id="Clip-Path" clip-path="url(#cp1)">
		<g>
			<path class="s0" d="m80.4 1.1h21.3v46h-21.3z"/>
		</g>
	</g>
	<g>
		<g>
			<g>
				<path class="s1" d="m98.9 40h-16v-3.2h5.7v-1.5h-5.7v-3.2h16v3.2h-7.2v1.5h7.2z"/>
			</g>
		</g>
	</g>
	<g>
		<g>
			<g>
				<path class="s1" d="m98.9 30.7h-16v-6.4h3.1v3.1h3.1v-3h3.1v3h3.6v-3.3h3.1z"/>
			</g>
		</g>
	</g>
	<g>
		<g>
			<g>
				<path class="s1" d="m98.9 23h-16v-3.2h13.3v-3.3h2.7z"/>
			</g>
		</g>
	</g>
	<g>
		<g>
			<g>
				<path fill-rule="evenodd" class="s1" d="m82.9 15.6v-4.2q0-2 1.3-2.8 1.2-0.8 3.6-0.8 2.4 0 3.6 0.7 1.2 0.8 1.2 2.6v1.3h6.3v3.2zm6.8-3.3q0-0.6-0.2-0.9-0.2-0.3-0.6-0.3-0.4-0.1-1.1-0.1-1 0-1.5 0.2-0.5 0.2-0.5 0.9v0.3h3.9z"/>
			</g>
		</g>
	</g>
</svg>