<svg xmlns="http://www.w3.org/2000/svg" xmlns:xlink="http://www.w3.org/1999/xlink" width="200" zoomAndPan="magnify" viewBox="0 0 150 52.499999" height="70" preserveAspectRatio="xMidYMid meet" version="1.0"><defs><g/><clipPath id="2425afb86c"><path d="M 105.371094 2.074219 L 126.652344 2.074219 L 126.652344 48.117188 L 105.371094 48.117188 Z M 105.371094 2.074219 " clip-rule="nonzero"/></clipPath></defs><g fill="#ffffff" fill-opacity="1"><g transform="translate(24.810676, 46.804242)"><g><path d="M 12.46875 0.53125 C 8.488281 0.53125 5.582031 -0.515625 3.75 -2.609375 C 1.914062 -4.703125 1 -7.898438 1 -12.203125 L 1 -16.953125 L 10.296875 -16.953125 L 10.296875 -12.203125 C 10.296875 -10.828125 10.472656 -9.757812 10.828125 -9 C 11.179688 -8.25 11.882812 -7.875 12.9375 -7.875 C 13.675781 -7.875 14.210938 -8.132812 14.546875 -8.65625 C 14.878906 -9.1875 15.082031 -9.8125 15.15625 -10.53125 C 15.226562 -11.257812 15.265625 -12.304688 15.265625 -13.671875 L 15.265625 -14.78125 C 15.265625 -18.695312 13.976562 -20.65625 11.40625 -20.65625 C 10.945312 -20.65625 10.648438 -20.632812 10.515625 -20.59375 L 10.515625 -28.734375 C 12.128906 -28.734375 13.34375 -29.09375 14.15625 -29.8125 C 14.96875 -30.53125 15.375 -31.679688 15.375 -33.265625 C 15.375 -35.835938 14.632812 -37.125 13.15625 -37.125 C 12.238281 -37.125 11.644531 -36.894531 11.375 -36.4375 C 11.113281 -35.976562 10.9375 -35.394531 10.84375 -34.6875 C 10.757812 -33.988281 10.703125 -33.484375 10.671875 -33.171875 L 10.671875 -31.796875 L 1.265625 -31.796875 L 1.21875 -33.375 C 1.25 -37.53125 2.234375 -40.582031 4.171875 -42.53125 C 6.109375 -44.488281 9.082031 -45.46875 13.09375 -45.46875 C 20.800781 -45.46875 24.65625 -41.4375 24.65625 -33.375 C 24.65625 -31.019531 24.335938 -29.144531 23.703125 -27.75 C 23.078125 -26.363281 21.988281 -25.390625 20.4375 -24.828125 C 21.707031 -24.191406 22.648438 -23.40625 23.265625 -22.46875 C 23.878906 -21.539062 24.28125 -20.40625 24.46875 -19.0625 C 24.664062 -17.726562 24.765625 -15.929688 24.765625 -13.671875 C 24.765625 -8.992188 23.785156 -5.457031 21.828125 -3.0625 C 19.878906 -0.664062 16.757812 0.53125 12.46875 0.53125 Z M 12.46875 0.53125 "/></g></g></g><g fill="#ffffff" fill-opacity="1"><g transform="translate(50.89666, 46.804242)"><g><path d="M 13.625 0.421875 C 10.53125 0.421875 8.082031 -0.101562 6.28125 -1.15625 C 4.488281 -2.21875 3.222656 -3.800781 2.484375 -5.90625 C 1.742188 -8.019531 1.375 -10.769531 1.375 -14.15625 L 1.375 -26.40625 C 1.375 -31.09375 1.660156 -34.78125 2.234375 -37.46875 C 2.816406 -40.164062 4.003906 -42.222656 5.796875 -43.640625 C 7.597656 -45.066406 10.296875 -45.78125 13.890625 -45.78125 C 15.859375 -45.78125 17.671875 -45.445312 19.328125 -44.78125 C 20.984375 -44.113281 22.300781 -43.109375 23.28125 -41.765625 C 24.269531 -40.429688 24.765625 -38.816406 24.765625 -36.921875 L 24.765625 -32 L 16 -32 L 16 -32.953125 C 16 -34.503906 15.863281 -35.703125 15.59375 -36.546875 C 15.332031 -37.390625 14.710938 -37.8125 13.734375 -37.8125 C 12.742188 -37.8125 12.046875 -37.546875 11.640625 -37.015625 C 11.234375 -36.492188 11.03125 -35.6875 11.03125 -34.59375 L 11.03125 -25.453125 C 11.457031 -26.296875 12.109375 -26.957031 12.984375 -27.4375 C 13.867188 -27.914062 14.910156 -28.15625 16.109375 -28.15625 C 18.578125 -28.15625 20.488281 -27.660156 21.84375 -26.671875 C 23.195312 -25.679688 24.132812 -24.21875 24.65625 -22.28125 C 25.1875 -20.34375 25.453125 -17.8125 25.453125 -14.6875 C 25.453125 -9.863281 24.535156 -6.140625 22.703125 -3.515625 C 20.878906 -0.890625 17.851562 0.421875 13.625 0.421875 Z M 13.3125 -7.921875 C 14.257812 -7.921875 14.863281 -8.296875 15.125 -9.046875 C 15.394531 -9.804688 15.53125 -11.050781 15.53125 -12.78125 L 15.53125 -16.421875 C 15.53125 -18.890625 14.828125 -20.125 13.421875 -20.125 C 11.828125 -20.125 11.03125 -19.050781 11.03125 -16.90625 L 11.03125 -11.296875 C 11.03125 -9.046875 11.789062 -7.921875 13.3125 -7.921875 Z M 13.3125 -7.921875 "/></g></g></g><g fill="#ffffff" fill-opacity="1"><g transform="translate(76.982643, 46.804242)"><g><path d="M 13.046875 0.421875 C 9.203125 0.421875 6.242188 -0.660156 4.171875 -2.828125 C 2.097656 -4.992188 1.0625 -8.082031 1.0625 -12.09375 L 1.0625 -32.578125 C 1.0625 -36.878906 2.0625 -40.15625 4.0625 -42.40625 C 6.070312 -44.65625 9.066406 -45.78125 13.046875 -45.78125 C 17.054688 -45.78125 20.066406 -44.65625 22.078125 -42.40625 C 24.085938 -40.15625 25.09375 -36.878906 25.09375 -32.578125 L 25.09375 -12.09375 C 25.09375 -8.039062 24.050781 -4.941406 21.96875 -2.796875 C 19.894531 -0.648438 16.921875 0.421875 13.046875 0.421875 Z M 13.046875 -7.921875 C 13.710938 -7.921875 14.253906 -8.226562 14.671875 -8.84375 C 15.097656 -9.457031 15.3125 -10.1875 15.3125 -11.03125 L 15.3125 -33.4375 C 15.3125 -34.738281 15.160156 -35.726562 14.859375 -36.40625 C 14.566406 -37.09375 13.960938 -37.4375 13.046875 -37.4375 C 12.128906 -37.4375 11.53125 -37.09375 11.25 -36.40625 C 10.96875 -35.726562 10.828125 -34.738281 10.828125 -33.4375 L 10.828125 -11.03125 C 10.828125 -10.1875 11.03125 -9.457031 11.4375 -8.84375 C 11.84375 -8.226562 12.378906 -7.921875 13.046875 -7.921875 Z M 13.046875 -7.921875 "/></g></g></g><g clip-path="url(#2425afb86c)"><path fill="#ffffff" d="M 105.371094 2.074219 L 126.652344 2.074219 L 126.652344 48.128906 L 105.371094 48.128906 Z M 105.371094 2.074219 " fill-opacity="1" fill-rule="nonzero"/></g><g fill="#000000" fill-opacity="1"><g transform="translate(123.938346, 41.684327)"><g><path d="M 0 -0.703125 L -16.015625 -0.703125 L -16.015625 -3.890625 L -10.296875 -3.890625 L -10.296875 -5.40625 L -16.015625 -5.40625 L -16.015625 -8.59375 L 0 -8.59375 L 0 -5.40625 L -7.265625 -5.40625 L -7.265625 -3.890625 L 0 -3.890625 Z M 0 -0.703125 "/></g></g></g><g fill="#000000" fill-opacity="1"><g transform="translate(123.938346, 32.382759)"><g><path d="M 0 -0.703125 L -16.015625 -0.703125 L -16.015625 -7.125 L -12.921875 -7.125 L -12.921875 -3.96875 L -9.8125 -3.96875 L -9.8125 -6.984375 L -6.78125 -6.984375 L -6.78125 -3.96875 L -3.109375 -3.96875 L -3.109375 -7.328125 L 0 -7.328125 Z M 0 -0.703125 "/></g></g></g><g fill="#000000" fill-opacity="1"><g transform="translate(123.938346, 24.702905)"><g><path d="M 0 -0.703125 L -16.015625 -0.703125 L -16.015625 -3.921875 L -2.71875 -3.921875 L -2.71875 -7.21875 L 0 -7.21875 Z M 0 -0.703125 "/></g></g></g><g fill="#000000" fill-opacity="1"><g transform="translate(123.938346, 17.302657)"><g><path d="M -16.015625 -0.703125 L -16.015625 -4.9375 C -16.015625 -6.21875 -15.597656 -7.128906 -14.765625 -7.671875 C -13.941406 -8.222656 -12.734375 -8.5 -11.140625 -8.5 C -9.554688 -8.5 -8.359375 -8.253906 -7.546875 -7.765625 C -6.742188 -7.285156 -6.34375 -6.414062 -6.34375 -5.15625 L -6.34375 -3.859375 L 0 -3.859375 L 0 -0.703125 Z M -9.234375 -4.046875 C -9.234375 -4.429688 -9.300781 -4.710938 -9.4375 -4.890625 C -9.582031 -5.066406 -9.785156 -5.179688 -10.046875 -5.234375 C -10.316406 -5.296875 -10.703125 -5.328125 -11.203125 -5.328125 C -11.867188 -5.328125 -12.351562 -5.253906 -12.65625 -5.109375 C -12.957031 -4.960938 -13.109375 -4.664062 -13.109375 -4.21875 L -13.109375 -3.859375 L -9.234375 -3.859375 Z M -9.234375 -4.046875 "/></g></g></g></svg>